<svg version="1.0" xmlns="http://www.w3.org/2000/svg" width="700.000000pt" height="430.000000pt" viewBox="0 0 700.000000 430.000000" preserveAspectRatio="xMidYMid meet">
<g transform="translate(0.000000,430.000000) scale(0.100000,-0.100000)" fill="#000000" stroke="none">
<path d="M20 2150 l0 -2150 3475 0 3475 0 0 2150 0 2150 -3475 0 -3475 0 0
-2150z m3870 1585 c0 -3 -11 -33 -24 -67 -64 -163 -68 -287 -19 -532 26 -134
2 -249 -75 -352 -71 -93 -196 -162 -323 -179 -42 -5 -51 -12 -98 -70 -75 -92
-258 -223 -279 -200 -4 4 -2 10 4 12 34 12 162 106 212 155 89 87 91 94 50
164 -125 218 -146 427 -59 617 91 202 260 351 491 433 60 21 120 31 120 19z
m1656 -1759 c3 -8 -14 -43 -38 -78 -54 -76 -90 -146 -83 -158 3 -5 28 -6 55
-3 27 3 56 3 66 -1 16 -6 16 -8 0 -25 -13 -14 -33 -19 -84 -20 -36 -1 -69 -5
-73 -9 -13 -15 -80 -183 -122 -307 -50 -150 -74 -252 -61 -265 14 -14 253 281
317 392 58 101 125 137 193 105 37 -18 50 -50 39 -94 -9 -36 -102 -127 -147
-143 -31 -12 -36 -18 -46 -69 -7 -32 -12 -69 -12 -84 0 -68 85 -6 200 146 72
93 91 109 105 87 7 -12 -10 -36 -122 -177 -111 -139 -148 -162 -213 -128 -64
33 -92 115 -53 157 9 10 13 21 10 24 -8 8 -28 -15 -113 -131 -37 -49 -85 -109
-108 -133 -35 -36 -46 -42 -75 -40 -24 2 -40 12 -55 31 -27 36 -25 93 8 237
14 58 21 108 18 111 -15 14 -68 -12 -86 -41 -26 -45 -131 -149 -161 -160 -85
-32 -175 34 -175 129 0 74 101 221 151 221 10 0 26 18 39 45 25 51 66 85 104
85 16 0 40 -14 66 -38 34 -33 40 -45 40 -78 -1 -21 -7 -56 -14 -77 -16 -43
-13 -46 30 -40 22 3 35 14 46 36 24 47 69 180 66 192 -2 6 -45 10 -105 10 -95
0 -125 6 -110 22 6 5 160 21 224 23 18 0 30 15 58 73 78 160 102 187 167 187
33 0 50 -5 54 -14z m-3963 -36 c15 -25 48 -25 183 -5 167 25 183 17 82 -38
-56 -30 -161 -59 -257 -69 -20 -3 -28 -18 -62 -118 -22 -63 -42 -124 -45 -136
-6 -20 -3 -21 101 -16 87 4 107 2 103 -9 -5 -14 -61 -32 -168 -52 l-65 -13
-17 -55 c-10 -29 -22 -63 -28 -74 -5 -11 -26 -72 -45 -135 -23 -75 -42 -121
-56 -133 -21 -17 -23 -17 -52 0 -62 37 -62 47 13 233 56 140 54 134 28 145
-36 15 -30 48 10 56 42 9 40 6 75 92 56 140 75 195 69 201 -3 3 -16 6 -29 6
-35 0 -63 18 -63 39 0 27 18 38 78 46 28 4 52 10 52 15 0 4 9 19 21 34 17 21
24 24 40 16 11 -6 25 -20 32 -30z m2845 -1 c20 -21 32 -61 32 -109 0 -28 -29
-122 -74 -244 -14 -38 -24 -72 -21 -74 6 -6 2 -11 49 61 103 158 242 302 303
313 32 6 40 3 59 -20 50 -57 43 -116 -31 -271 -151 -314 -231 -512 -223 -551
2 -10 15 -25 30 -33 24 -14 32 -14 78 3 58 21 79 13 54 -22 -19 -28 -85 -62
-118 -62 -37 0 -92 53 -110 107 -9 26 -16 73 -16 105 0 73 50 204 179 471 92
188 99 207 82 207 -21 0 -131 -123 -206 -230 -21 -30 -50 -68 -65 -85 -37 -43
-138 -205 -185 -300 -43 -86 -62 -98 -94 -66 -39 39 -32 68 94 371 90 216 148
377 140 391 -26 41 -130 -69 -166 -176 -21 -63 -30 -71 -51 -45 -26 32 -22 76
13 148 45 89 102 130 186 131 30 1 48 -5 61 -20z m-2407 -298 c43 -43 48 -68
28 -147 -6 -25 -10 -47 -7 -49 2 -2 17 -1 32 3 23 6 29 14 31 40 4 47 30 72
77 72 45 0 51 -20 16 -58 -23 -23 -23 -24 -3 -38 11 -8 25 -12 31 -10 7 3 29
0 48 -5 27 -8 36 -15 36 -32 0 -19 -56 -164 -81 -209 -11 -22 -12 -48 -1 -48
26 0 180 199 233 301 22 41 57 93 80 115 36 35 45 39 90 39 41 0 54 -4 70 -24
36 -44 20 -98 -48 -162 -21 -20 -56 -46 -79 -57 -36 -18 -42 -26 -52 -72 -27
-115 -8 -133 72 -71 30 23 56 48 59 54 2 7 25 38 51 69 25 31 46 64 46 73 0
22 45 65 69 65 29 0 42 -32 48 -121 3 -44 9 -79 13 -79 4 0 20 19 36 43 28 40
92 115 143 164 18 17 34 23 55 21 47 -5 45 -32 -4 -64 -38 -25 -70 -68 -70
-94 0 -5 13 -10 29 -10 44 0 112 59 159 138 62 105 116 143 180 127 113 -28
65 -170 -84 -244 -40 -20 -41 -23 -53 -92 -12 -74 -10 -89 16 -89 48 0 243
231 243 287 0 45 34 83 75 83 44 0 52 -15 26 -51 -12 -16 -19 -33 -16 -38 3
-5 27 -12 55 -16 86 -12 87 -21 12 -192 -39 -89 -41 -121 -5 -91 9 7 60 70
114 140 99 127 116 145 126 134 11 -11 -9 -57 -56 -128 -94 -140 -187 -228
-242 -228 -34 0 -69 41 -69 81 0 34 24 107 56 172 13 27 24 52 24 56 0 4 -17
7 -39 7 -37 -1 -42 -5 -120 -106 -130 -167 -178 -197 -241 -153 -53 37 -61 54
-57 126 1 37 1 67 0 67 -1 0 -17 -9 -35 -20 -48 -29 -103 -27 -125 6 l-17 26
-28 -33 c-47 -56 -85 -113 -92 -139 -19 -68 -28 -80 -57 -80 -50 0 -61 32 -53
149 4 60 3 101 -2 101 -5 0 -41 -41 -79 -91 -72 -92 -115 -129 -154 -129 -70
0 -146 93 -110 136 6 8 9 18 4 22 -4 4 -14 -3 -24 -16 -86 -121 -158 -182
-212 -182 -35 0 -69 42 -69 85 0 31 59 185 81 211 13 15 -3 26 -25 18 -9 -3
-23 -1 -30 6 -11 8 -20 8 -35 1 -11 -6 -32 -11 -48 -11 -34 0 -40 -5 -78 -55
-71 -96 -147 -155 -199 -155 -64 0 -126 68 -126 139 0 51 59 160 104 193 21
15 45 28 52 28 8 0 20 15 27 33 8 18 29 47 46 65 46 45 82 43 132 -7z"></path>
<path d="M3741 3681 c-24 -10 -47 -24 -51 -32 -11 -21 -19 -98 -11 -104 4 -2
24 17 43 43 20 26 48 58 62 71 46 44 31 52 -43 22z"></path>
<path d="M3776 3614 c-21 -25 -36 -48 -33 -51 10 -9 65 30 76 54 27 58 7 57
-43 -3z"></path>
<path d="M3640 3620 c0 -5 5 -10 10 -10 6 0 10 5 10 10 0 6 -4 10 -10 10 -5 0
-10 -4 -10 -10z"></path>
<path d="M3576 3591 c-17 -18 -16 -21 14 -75 18 -31 36 -56 41 -56 13 0 11 91
-4 119 -16 32 -30 36 -51 12z"></path>
<path d="M3522 3551 c-22 -13 32 -211 57 -211 6 0 16 19 23 41 11 39 10 45
-23 106 -38 73 -40 75 -57 64z"></path>
<path d="M3749 3530 c-19 -15 -20 -19 -8 -20 9 0 27 9 40 20 19 15 20 19 8 20
-9 0 -27 -9 -40 -20z"></path>
<path d="M3466 3501 c-3 -5 3 -20 14 -32 15 -19 19 -21 20 -7 0 37 -21 61 -34
39z"></path>
<path d="M3424 3456 c-7 -17 -7 -17 65 -119 29 -42 57 -75 61 -72 13 8 -19 88
-59 144 -40 59 -58 71 -67 47z"></path>
<path d="M3702 3433 c-40 -22 -67 -44 -73 -60 -5 -14 -8 -27 -6 -30 5 -5 144
76 158 93 10 13 5 35 -9 33 -4 -1 -35 -17 -70 -36z"></path>
<path d="M3381 3406 c-9 -11 0 -38 42 -122 29 -60 62 -122 72 -138 18 -26 20
-27 32 -10 28 39 16 81 -53 179 -36 52 -69 97 -73 100 -5 2 -14 -1 -20 -9z"></path>
<path d="M3321 3306 c-9 -11 -2 -28 35 -82 88 -129 139 -193 147 -185 12 12
-42 113 -108 204 -31 42 -58 77 -59 77 -2 0 -9 -6 -15 -14z"></path>
<path d="M3735 3292 c-16 -9 -60 -34 -97 -55 -45 -25 -69 -45 -73 -60 -11 -51
-10 -62 4 -59 11 2 208 113 229 128 2 1 1 16 -3 33 -7 35 -17 37 -60 13z"></path>
<path d="M3610 3268 c-16 -7 -20 -12 -12 -15 8 -3 21 2 30 11 19 18 17 19 -18
4z"></path>
<path d="M3290 3230 c0 -58 149 -350 179 -350 10 0 27 75 22 98 -1 8 -21 41
-45 75 -141 205 -156 222 -156 177z"></path>
<path d="M3663 3060 c-106 -60 -144 -87 -147 -103 -12 -58 -15 -85 -9 -91 3
-3 40 13 82 35 91 50 231 181 231 216 0 13 -3 23 -7 23 -5 0 -72 -36 -150 -80z"></path>
<path d="M3254 3105 c-3 -8 4 -32 16 -52 13 -21 34 -58 48 -83 34 -61 92 -150
97 -150 6 0 -10 48 -38 117 -22 54 -102 183 -114 183 -2 0 -6 -7 -9 -15z"></path>
<path d="M3602 3075 c-40 -19 -71 -39 -67 -44 6 -10 107 39 135 65 21 21 12
18 -68 -21z"></path>
<path d="M3799 3034 c-12 -14 -11 -16 5 -13 11 2 21 10 24 17 5 17 -13 15 -29
-4z"></path>
<path d="M3255 2963 c4 -26 12 -55 18 -63 58 -82 170 -198 155 -162 -13 32
-164 272 -171 272 -5 0 -6 -21 -2 -47z"></path>
<path d="M3780 2975 c-14 -7 -38 -20 -55 -28 -33 -16 -105 -87 -88 -87 16 0
186 105 191 118 5 16 -18 15 -48 -3z"></path>
<path d="M3669 2845 c-120 -72 -160 -106 -108 -91 13 3 61 14 107 22 79 16 85
18 107 54 27 43 42 90 28 90 -5 0 -65 -34 -134 -75z"></path>
<path d="M3535 2844 c-35 -20 -52 -41 -54 -66 -2 -16 15 -6 62 36 55 50 51 64
-8 30z"></path>
<path d="M3300 2804 c0 -30 74 -155 90 -152 30 6 20 38 -30 102 -29 36 -54 66
-56 66 -2 0 -4 -7 -4 -16z"></path>
<path d="M3560 2729 c-67 -15 -90 -25 -107 -47 -36 -43 -30 -56 21 -49 64 9
152 47 194 84 l37 32 -30 0 c-16 -1 -68 -9 -115 -20z"></path>
<path d="M5002 1607 c-12 -13 -22 -28 -22 -34 0 -5 -7 -24 -16 -41 -23 -48
-15 -94 19 -106 22 -8 30 -7 38 4 16 26 31 93 33 145 1 58 -17 69 -52 32z"></path>
<path d="M5657 1548 c-45 -74 -65 -118 -54 -125 17 -11 97 87 97 119 0 34 -24
37 -43 6z"></path>
<path d="M4876 1428 c-23 -36 -56 -126 -56 -153 0 -21 5 -25 32 -25 27 0 43
11 90 61 32 33 58 64 58 69 0 4 -11 11 -24 14 -14 3 -38 17 -55 31 l-30 26
-15 -23z"></path>
<path d="M1932 1607 c-12 -13 -22 -28 -22 -34 0 -5 -7 -24 -16 -41 -23 -48
-15 -94 19 -106 22 -8 30 -7 38 4 16 26 31 93 33 145 1 58 -17 69 -52 32z"></path>
<path d="M2606 1528 c-63 -109 -58 -140 10 -63 29 33 44 59 44 77 0 42 -25 35
-54 -14z"></path>
<path d="M3365 1538 c-37 -63 -57 -109 -51 -116 4 -4 27 14 52 40 32 34 44 55
44 77 0 41 -20 40 -45 -1z"></path>
<path d="M1781 1375 c-17 -41 -31 -86 -31 -100 0 -22 4 -25 32 -25 27 0 43 11
90 61 32 33 58 64 58 69 0 5 -15 13 -34 20 -18 6 -42 20 -51 30 -10 11 -21 20
-25 20 -4 0 -21 -34 -39 -75z"></path>
</g>
</svg>